<?xml version="1.0" standalone="no"?>
<!DOCTYPE svg PUBLIC "-//W3C//DTD SVG 20010904//EN"
 "http://www.w3.org/TR/2001/REC-SVG-20010904/DTD/svg10.dtd">
<svg version="1.0" xmlns="http://www.w3.org/2000/svg"
 width="512.000000pt" height="512.000000pt" viewBox="0 0 512.000000 512.000000"
 preserveAspectRatio="xMidYMid meet">
<metadata>
Created by potrace 1.11, written by Peter Selinger 2001-2013
</metadata>
<g transform="translate(0.000000,512.000000) scale(0.100000,-0.100000)"
fill="#000000" stroke="none">
<path d="M2591 5076 c2 -2 69 -5 149 -8 83 -3 124 -2 95 3 -51 7 -252 12 -244
5z"/>
<path d="M2935 5049 c184 -40 255 -60 310 -84 17 -7 53 -22 80 -34 62 -25 132
-61 120 -61 -6 -1 7 -7 28 -15 21 -7 44 -19 50 -27 7 -8 25 -22 40 -32 16 -9
36 -24 45 -31 9 -8 44 -36 77 -62 70 -56 160 -145 207 -206 18 -23 35 -44 38
-47 24 -20 153 -240 146 -247 -12 -13 -389 -74 -506 -83 -141 -10 -180 -8
-425 31 -324 50 -382 39 -736 -136 l-175 -86 -54 12 c-30 6 -112 28 -181 49
-304 93 -422 93 -652 -1 l-78 -31 -23 21 c-33 31 -48 26 -100 -29 -38 -41 -53
-50 -81 -50 -47 0 -65 9 -65 32 0 11 -5 28 -11 39 -11 22 -125 109 -142 109
-5 0 20 -23 57 -51 53 -40 67 -55 63 -71 -4 -14 -2 -18 10 -14 9 4 13 1 10 -6
-2 -7 -12 -11 -22 -10 -17 3 -17 2 -4 -14 10 -13 10 -16 1 -10 -9 5 -25 -2
-45 -22 -46 -42 -66 -51 -99 -42 -15 5 -28 5 -28 1 0 -16 58 -33 102 -30 29 2
42 -1 40 -9 -1 -7 6 -12 16 -12 27 0 49 -29 57 -75 5 -28 4 -36 -4 -26 -15 23
-26 -36 -13 -72 15 -39 2 -69 -42 -92 -28 -15 -41 -32 -56 -73 -11 -29 -20
-56 -20 -61 0 -4 -17 -23 -38 -43 -48 -44 -165 -84 -183 -61 -15 18 -5 145 19
233 23 86 28 93 63 85 41 -9 36 0 -17 31 -44 26 -45 28 -39 65 9 53 42 119 63
125 9 3 23 8 30 10 8 2 -2 19 -27 44 -21 22 -41 40 -44 40 -3 0 -8 -13 -12
-30 -5 -23 -12 -30 -30 -30 -25 0 -38 30 -29 67 7 27 125 153 144 153 8 0 22
5 30 10 11 7 3 10 -31 10 -38 0 -60 -9 -135 -56 -49 -31 -94 -58 -100 -61 -21
-8 2 83 31 121 52 68 43 185 -16 217 -11 6 -23 8 -27 5 -3 -3 -1 -6 5 -6 17 0
34 -53 25 -82 -7 -28 -38 -68 -101 -134 -27 -28 -40 -35 -60 -31 -24 5 -24 4
-7 -9 11 -7 34 -17 53 -20 38 -7 41 -14 14 -31 -11 -7 -22 -26 -26 -43 -11
-51 -36 -33 -84 63 -24 48 -46 87 -50 87 -10 0 -33 -117 -38 -192 -3 -38 -8
-68 -12 -68 -5 0 -11 22 -14 49 -3 28 -14 65 -23 83 -10 18 -18 51 -19 73 -3
53 -28 111 -55 125 -22 12 -22 12 -6 -11 9 -13 16 -35 16 -49 -1 -36 -32 -100
-69 -137 l-31 -33 63 0 c35 0 66 -3 69 -6 6 -6 -6 -61 -23 -105 -6 -15 -20
-31 -32 -37 -18 -9 -11 -11 39 -10 70 1 78 -2 100 -44 11 -21 14 -44 9 -77 -4
-31 -1 -58 8 -81 10 -23 15 -69 15 -135 0 -116 -20 -184 -69 -235 -24 -25 -28
-34 -18 -41 14 -8 118 -34 181 -44 21 -3 38 -9 38 -13 0 -11 -128 -42 -170
-42 -26 0 -31 -3 -20 -10 8 -5 60 -10 115 -10 119 0 150 13 143 61 -3 18 1 34
11 43 9 7 88 37 176 66 191 62 212 71 258 116 l35 35 6 -78 c13 -162 30 -272
62 -402 18 -73 35 -136 38 -139 15 -14 15 11 1 80 -14 67 -14 84 -1 168 9 51
20 98 25 103 5 5 36 18 67 29 70 24 108 49 131 88 21 36 23 36 54 9 72 -65
225 -139 285 -139 7 0 34 -14 59 -32 38 -27 57 -33 114 -36 225 -13 407 93
507 295 20 40 37 73 39 73 2 0 28 -25 57 -56 72 -76 112 -102 274 -178 130
-60 145 -65 233 -71 62 -5 92 -4 87 3 -3 5 4 12 16 15 18 5 19 8 8 22 -10 12
-16 13 -26 4 -9 -7 -14 -7 -14 -1 0 15 18 27 100 68 161 81 319 288 349 459
39 222 48 247 104 276 24 13 346 70 429 76 l67 5 26 -51 c14 -29 23 -56 19
-62 -3 -6 1 -18 9 -27 21 -25 27 -50 14 -56 -9 -3 -9 -5 0 -5 7 -1 10 -8 7
-16 -4 -8 -1 -15 6 -15 9 0 9 -4 -1 -17 -11 -13 -5 -12 24 5 61 35 73 31 80
-30 4 -29 10 -69 13 -88 4 -19 8 -102 8 -185 1 -223 -25 -322 -143 -543 -13
-24 -29 -85 -35 -132 -1 -9 -4 -20 -7 -25 -11 -20 -1 -74 23 -126 32 -68 107
-164 120 -151 15 15 67 162 94 267 61 237 82 560 50 795 -7 52 -12 96 -10 98
1 2 12 -2 24 -8 17 -9 26 -8 45 4 83 55 20 388 -90 472 -20 15 -63 34 -97 43
-60 16 -61 16 -102 88 -222 390 -625 682 -1065 773 -51 11 -107 20 -125 19
-29 -1 -29 -1 9 -10z m1350 -1127 c9 -29 14 -61 12 -70 -2 -10 -14 16 -26 57
-12 40 -25 81 -28 90 -3 12 -1 12 11 -3 8 -11 23 -44 31 -74z m-3833 -74 c2
-7 2 -29 -2 -48 l-5 -34 -16 24 c-21 33 -29 57 -22 64 11 11 41 6 45 -6z m193
-48 c0 -7 -6 -15 -12 -17 -8 -3 -13 4 -13 17 0 13 5 20 13 18 6 -3 12 -11 12
-18z m-222 -62 c-13 -12 -25 -19 -29 -15 -10 10 16 37 34 37 13 0 12 -4 -5
-22z m594 -130 c-3 -8 -6 -5 -6 6 -1 11 2 17 5 13 3 -3 4 -12 1 -19z m146 -84
c9 -30 15 -60 12 -65 -8 -12 -42 -11 -50 2 -9 13 4 119 13 119 4 0 15 -25 25
-56z"/>
<path d="M2822 4780 c-101 -9 -190 -27 -210 -43 -49 -39 -47 -106 4 -130 39
-19 506 -62 564 -52 28 5 42 15 63 48 42 64 31 117 -23 117 -23 0 -30 5 -30
20 0 48 -113 60 -368 40z m396 -190 c-7 -10 -14 -17 -17 -15 -4 4 18 35 25 35
2 0 -1 -9 -8 -20z"/>
<path d="M1731 4650 c-120 -24 -193 -48 -208 -68 -34 -42 -1 -165 49 -185 27
-11 51 -5 252 60 128 42 226 80 234 90 25 34 15 61 -35 93 -43 26 -56 30 -123
29 -41 0 -117 -9 -169 -19z"/>
<path d="M3722 3299 c-12 -29 -21 -54 -19 -56 6 -6 49 87 45 98 -2 5 -13 -14
-26 -42z"/>
<path d="M3683 3304 c1 -33 4 -39 14 -29 6 7 15 26 18 41 6 27 5 28 -8 11 -15
-18 -15 -18 -20 0 -2 10 -4 -1 -4 -23z"/>
<path d="M3645 3209 c-35 -17 -134 -44 -295 -79 -25 -5 -81 -14 -125 -20 -44
-6 -89 -13 -100 -15 -11 -2 -25 -4 -32 -4 -7 -1 -10 -7 -8 -13 6 -16 -244 -65
-400 -78 -60 -6 -164 -14 -230 -20 -172 -14 -515 -15 -615 -2 -47 7 -139 19
-206 27 -67 9 -152 24 -190 35 -38 11 -72 20 -76 20 -12 0 -48 -43 -42 -51 2
-4 0 -10 -6 -14 -14 -9 -13 -25 3 -25 6 0 25 7 41 15 15 8 38 15 50 15 30 0
124 -79 291 -246 141 -141 254 -234 283 -234 8 0 13 2 11 4 -2 2 -39 31 -81
65 -79 62 -158 151 -158 177 0 9 5 12 10 9 6 -3 10 -4 10 -1 0 3 -20 17 -43
31 -65 37 -150 135 -133 152 3 3 63 -1 133 -10 247 -32 354 -40 436 -33 45 3
117 2 160 -3 47 -5 92 -5 115 1 20 5 100 13 177 17 77 5 196 19 263 31 80 14
127 19 134 12 9 -9 81 10 103 28 11 9 127 30 160 29 16 0 14 -3 -9 -14 l-30
-12 26 -14 26 -14 -19 -50 c-12 -33 -29 -56 -46 -66 -33 -19 -157 -44 -172
-34 -6 3 -14 25 -18 48 -7 43 -14 37 -27 -24 -6 -27 -26 -39 -101 -58 -49 -13
-155 -14 -174 -2 -10 6 -25 4 -44 -6 -35 -17 -159 -29 -211 -19 -32 6 -40 14
-56 49 l-19 42 0 -42 c-1 -40 -3 -43 -38 -52 -21 -6 -72 -11 -114 -11 -61 0
-81 4 -102 20 l-25 20 -5 -22 c-6 -20 -10 -21 -101 -15 -52 3 -102 10 -113 15
-10 5 -36 7 -58 4 l-40 -5 55 -14 c54 -13 516 -21 528 -9 2 3 14 -1 25 -9 18
-12 23 -13 36 -1 11 10 57 16 151 20 164 8 245 14 329 26 43 6 69 6 77 -1 9
-7 19 -4 33 10 12 12 33 21 48 21 14 0 55 5 91 11 51 9 73 19 103 46 35 32 39
40 37 77 l-3 41 39 -1 c35 -1 38 0 22 11 -10 8 -24 11 -31 9 -13 -5 -29 22
-20 36 2 4 27 10 55 14 28 4 57 9 65 12 11 5 13 2 9 -10 -3 -9 -11 -16 -18
-15 -6 1 -18 1 -26 -1 -11 -1 -9 -4 4 -9 19 -7 76 19 159 74 24 16 35 17 68 8
l39 -10 -1 63 c-1 35 -2 64 -3 64 -1 0 -20 -9 -41 -21z"/>
<path d="M3056 3151 c-3 -5 0 -14 8 -20 10 -8 17 -6 31 9 18 20 17 20 -8 20
-14 0 -28 -4 -31 -9z"/>
<path d="M3148 2993 c7 -3 16 -2 19 1 4 3 -2 6 -13 5 -11 0 -14 -3 -6 -6z"/>
<path d="M3021 2934 c0 -11 3 -14 6 -6 3 7 2 16 -1 19 -3 4 -6 -2 -5 -13z"/>
<path d="M3960 2942 c0 -4 -21 -18 -46 -32 -58 -30 -40 -39 21 -10 40 19 61
50 35 50 -5 0 -10 -3 -10 -8z"/>
<path d="M3976 2750 c-32 -30 -71 -63 -87 -72 -30 -18 -39 -38 -16 -38 13 1
87 50 136 92 22 19 31 35 29 50 -3 20 -9 17 -62 -32z"/>
<path d="M3111 2399 c-24 -16 -56 -37 -70 -48 -64 -49 -127 -91 -136 -91 -5 0
-23 -7 -40 -16 -132 -70 -339 -109 -533 -100 -131 6 -254 41 -347 98 -102 63
-103 63 -70 34 47 -41 153 -98 219 -117 34 -10 88 -29 121 -42 39 -17 108 -31
197 -43 130 -16 143 -16 216 -1 42 9 89 17 103 17 13 0 34 7 47 15 12 9 62 36
110 60 78 38 100 55 178 140 49 53 93 103 97 111 14 25 -45 15 -92 -17z"/>
<path d="M4370 2318 c-12 -16 -32 -22 -93 -28 -59 -6 -87 -14 -118 -35 -34
-22 -59 -28 -143 -36 -55 -6 -118 -7 -138 -4 -21 4 -38 3 -38 -2 0 -11 71 -30
137 -37 29 -3 73 -14 98 -25 27 -12 44 -15 42 -8 -5 25 156 18 189 -9 18 -14
17 -15 -16 -10 -91 14 -125 16 -105 7 11 -5 31 -10 45 -10 38 -1 130 -43 130
-59 0 -8 -30 -46 -67 -85 -38 -39 -77 -81 -89 -93 -27 -28 -86 -38 -149 -24
-27 6 -77 13 -110 15 l-60 4 62 -13 c122 -26 193 -65 180 -100 -4 -9 -2 -18 3
-21 19 -12 10 -71 -15 -104 -40 -55 -62 -71 -97 -71 -50 0 -188 26 -233 45
-35 14 -38 14 -20 0 33 -26 228 -77 302 -79 42 -1 59 4 94 29 39 27 51 46 104
165 33 74 70 151 82 170 12 19 24 52 27 75 2 22 10 90 17 150 22 194 16 244
-21 193z m-155 -528 c3 -5 2 -10 -4 -10 -5 0 -13 5 -16 10 -3 6 -2 10 4 10 5
0 13 -4 16 -10z"/>
<path d="M3775 2210 c28 -12 55 -12 55 0 0 6 -17 10 -37 9 -31 0 -34 -2 -18
-9z"/>
<path d="M3695 2180 c-3 -5 -1 -10 4 -10 6 0 11 5 11 10 0 6 -2 10 -4 10 -3 0
-8 -4 -11 -10z"/>
<path d="M1490 2098 c186 -180 308 -264 495 -342 402 -168 879 -186 1300 -50
135 44 316 131 372 179 23 19 46 35 51 35 21 0 22 19 5 62 -11 26 -18 70 -18
110 0 38 -2 68 -5 68 -3 0 -25 -20 -50 -45 -25 -24 -49 -44 -54 -45 -5 0 -29
-15 -55 -33 -63 -44 -238 -130 -251 -122 -6 3 -13 0 -16 -9 -3 -8 -20 -18 -37
-21 -18 -4 -61 -16 -97 -27 -36 -11 -74 -22 -85 -24 -11 -1 -56 -12 -100 -23
-218 -53 -556 -59 -770 -13 -123 27 -165 33 -176 26 -8 -4 -9 -3 -5 4 5 8 0
12 -13 12 -53 0 -239 78 -288 120 -12 10 -24 16 -27 13 -6 -7 -149 110 -194
160 -19 20 -39 37 -45 37 -6 0 22 -33 63 -72z"/>
<path d="M2206 1389 c-82 -4 -154 -13 -160 -19 -7 -7 -2 -10 15 -10 32 0 125
-46 133 -65 3 -8 1 -15 -4 -15 -6 0 -10 -9 -10 -20 0 -20 -11 -26 -23 -14 -3
4 1 13 9 22 8 8 12 18 7 22 -18 16 -135 50 -174 50 -23 0 -57 7 -75 16 -28 13
-40 14 -60 6 -30 -14 -30 -25 2 -142 35 -128 45 -135 16 -10 -5 24 -5 24 12 7
10 -9 23 -17 29 -16 9 0 8 2 0 6 -12 4 -19 33 -9 33 3 0 16 -10 30 -23 31 -29
60 -100 54 -132 -4 -19 -2 -23 7 -15 9 7 10 25 4 62 -10 63 2 82 29 48 24 -30
36 -12 16 25 -8 15 -13 29 -12 31 2 1 22 -11 46 -27 46 -31 54 -28 20 8 -12
13 -19 26 -16 29 11 10 70 -27 75 -47 3 -10 9 -16 14 -13 5 3 9 -2 9 -10 0 -9
5 -16 10 -16 6 0 10 -5 10 -11 0 -5 -4 -8 -9 -4 -5 3 -12 -3 -14 -12 -3 -11
-5 -5 -6 12 -1 21 -4 26 -10 16 -7 -11 -9 -11 -13 0 -3 8 -9 11 -13 7 -5 -5 0
-16 9 -27 13 -14 16 -28 10 -56 -5 -29 -4 -36 6 -30 8 5 11 3 8 -6 -6 -17
-108 -26 -108 -9 0 6 4 9 9 6 12 -8 23 36 12 47 -5 5 -12 0 -15 -11 -4 -12
-20 -27 -36 -34 -17 -7 -30 -17 -30 -21 0 -5 -22 -7 -49 -5 -38 2 -47 0 -43
-11 4 -11 -1 -12 -21 -7 -14 3 -28 2 -31 -3 -3 -5 17 -11 44 -15 28 -4 60 -16
76 -29 50 -42 74 -70 74 -88 0 -12 7 -19 19 -19 14 0 18 5 14 19 -6 23 13 37
21 15 8 -20 -22 -64 -43 -64 -28 0 -59 28 -66 59 -5 25 -16 33 -71 55 -75 30
-100 33 -61 7 38 -24 60 -58 54 -81 -6 -22 22 -37 34 -18 13 20 22 2 10 -20
-12 -23 -40 -20 -84 10 -20 15 -27 27 -25 46 3 24 -1 27 -30 30 -28 3 -31 6
-21 18 9 12 6 16 -21 25 -23 9 -28 14 -18 20 8 6 1 9 -23 9 -28 0 -41 -6 -53
-25 -9 -14 -25 -25 -36 -25 -27 0 -25 18 3 31 21 9 21 9 -3 4 -14 -3 -47 -9
-75 -14 -27 -4 -66 -16 -85 -26 -19 -10 -53 -24 -75 -32 l-40 -13 40 6 c22 3
54 7 70 9 44 4 189 -21 223 -39 16 -8 32 -13 34 -11 3 3 13 -4 23 -15 10 -11
28 -20 39 -20 16 0 18 -3 7 -9 -9 -6 -10 -11 -2 -15 6 -4 16 -4 21 -1 6 3 10
2 10 -3 0 -6 -7 -13 -16 -16 -8 -3 -12 -10 -9 -16 4 -6 12 -8 18 -4 7 3 5 0
-3 -8 -15 -13 -16 -26 -6 -105 4 -28 2 -43 -5 -43 -6 0 -9 -7 -6 -15 4 -8 1
-17 -5 -21 -7 -4 -5 -10 6 -16 23 -13 20 -26 -6 -30 -15 -2 -22 -9 -22 -21 1
-11 -5 -17 -20 -17 -11 0 -28 -5 -36 -10 -20 -13 97 -13 205 0 44 5 107 12
140 15 l60 6 -66 -24 c-82 -31 -112 -46 -122 -63 -4 -7 -33 -29 -65 -47 -60
-35 -110 -44 -306 -53 -80 -3 -261 16 -325 35 -43 13 -52 8 -14 -8 70 -28 177
-42 368 -48 217 -6 348 4 487 37 47 11 141 28 209 38 113 17 125 17 133 3 5
-9 9 -17 10 -18 1 -1 14 -5 29 -8 l29 -8 -28 28 c-26 26 -27 29 -21 107 5 60
13 91 32 123 25 44 98 114 148 143 29 17 29 17 22 87 -19 186 -21 261 -12 399
9 137 8 150 -8 162 -33 24 -230 35 -439 23z m0 -156 c-11 -11 -19 6 -11 24 8
17 8 17 12 0 3 -10 2 -21 -1 -24z m193 0 c-19 -50 -134 -264 -153 -284 -32
-36 -28 -12 7 38 19 26 60 99 91 161 53 106 78 144 55 85z m-198 -136 c-10 -9
-11 -8 -5 6 3 10 9 15 12 12 3 -3 0 -11 -7 -18z m-16 -86 c-3 -6 -18 -11 -33
-11 -29 0 -20 15 13 22 24 5 29 3 20 -11z m-135 -51 c8 -5 12 -11 10 -14 -3
-2 -14 2 -24 10 -22 15 -10 19 14 4z m50 -26 c0 -2 -7 -4 -15 -4 -8 0 -15 4
-15 10 0 5 7 7 15 4 8 -4 15 -8 15 -10z m-233 -109 c67 -62 90 -91 123 -157
22 -44 40 -88 40 -97 0 -9 -18 20 -39 64 -39 79 -60 103 -191 223 -26 24 -39
42 -30 42 8 0 52 -34 97 -75z m-72 14 c11 -16 1 -19 -13 -3 -7 8 -8 14 -3 14
5 0 13 -5 16 -11z m398 -356 c-7 -2 -21 -2 -30 0 -10 3 -4 5 12 5 17 0 24 -2
18 -5z"/>
<path d="M3010 1329 c-92 -11 -179 -36 -202 -56 -23 -21 -23 -49 3 -169 11
-55 21 -131 22 -169 l2 -71 45 7 c77 13 164 10 216 -8 68 -23 169 -77 169 -91
0 -6 9 -18 20 -26 11 -9 16 -15 10 -16 -13 0 -75 37 -102 62 -33 30 -160 43
-287 28 -84 -10 -109 -17 -146 -41 l-45 -30 68 7 c39 4 118 1 187 -6 117 -13
119 -13 91 -29 -37 -21 -81 -57 -81 -66 0 -4 9 -5 20 -2 11 3 20 1 20 -5 0 -5
5 -6 10 -3 6 3 10 -1 10 -9 0 -9 8 -16 19 -16 27 0 52 -11 46 -20 -3 -4 7 -11
21 -14 18 -5 24 -11 20 -23 -5 -12 -1 -14 14 -10 17 4 20 2 15 -14 -5 -14 -1
-19 12 -20 14 0 13 -2 -6 -10 -16 -6 -21 -14 -17 -25 4 -9 1 -23 -5 -30 -9
-11 -8 -14 5 -14 9 0 16 -4 16 -10 0 -5 -6 -10 -14 -10 -9 0 -16 -12 -18 -32
-2 -18 -7 -31 -11 -28 -10 6 -37 -41 -31 -52 3 -5 -6 -8 -20 -8 -27 0 -35 -15
-13 -23 12 -6 -51 -8 -183 -9 l-75 0 55 -9 c30 -5 134 -11 230 -12 179 -2 201
-8 144 -37 -52 -27 -76 -48 -69 -60 9 -15 -11 -37 -53 -57 -32 -15 -51 -16
-191 -5 -179 14 -312 35 -390 63 -64 22 -78 20 -24 -4 157 -69 568 -108 783
-74 134 21 192 46 282 123 87 74 119 128 126 211 4 49 2 55 -29 86 -19 19 -39
36 -45 38 -17 6 -99 191 -125 281 -20 67 -21 81 -9 102 8 17 11 41 6 72 -3 28
0 71 8 108 8 33 15 87 15 119 0 71 -16 90 -88 106 -71 15 -341 22 -431 10z
m94 -45 c42 -4 74 -9 71 -12 -3 -3 -56 -5 -118 -3 -77 1 -127 -3 -161 -14 -50
-15 -68 -13 -49 6 22 22 141 32 257 23z m-247 -96 c-3 -8 -6 -5 -6 6 -1 11 2
17 5 13 3 -3 4 -12 1 -19z m76 -55 c-7 -2 -19 -2 -25 0 -7 3 -2 5 12 5 14 0
19 -2 13 -5z m-63 -28 c1 12 4 15 7 7 3 -7 2 -25 -2 -39 -5 -21 -8 -24 -16
-12 -5 7 -8 25 -8 39 0 23 1 23 9 5 l9 -20 1 20z m157 -1 c-3 -3 -12 -4 -19
-1 -8 3 -5 6 6 6 11 1 17 -2 13 -5z m-17 -29 c-10 -12 -10 -15 0 -15 9 0 9 -4
2 -12 -9 -12 -10 -54 -1 -88 2 -8 -3 -15 -11 -15 -8 0 -14 6 -12 13 1 6 -2 12
-8 12 -5 0 -10 -4 -10 -10 0 -5 -10 -10 -22 -9 -21 0 -21 1 -4 8 14 5 16 10 8
15 -15 9 -16 46 -1 46 5 0 8 4 5 8 -7 12 35 62 52 62 12 0 12 -3 2 -15z m291
-117 c-6 -13 -9 -15 -7 -5 3 9 1 17 -4 17 -6 0 -10 10 -10 22 0 21 1 21 17 6
14 -14 14 -21 4 -40z m-374 -18 c7 0 13 -4 13 -10 0 -13 -47 -13 -55 0 -3 6
-3 20 1 33 l7 22 10 -22 c6 -13 16 -23 24 -23z m187 31 c3 -4 -6 -6 -19 -3
-14 2 -25 6 -25 8 0 8 39 4 44 -5z m106 -22 c0 -5 -4 -9 -10 -9 -5 0 -10 7
-10 16 0 8 5 12 10 9 6 -3 10 -10 10 -16z m-33 -95 c-3 -3 -12 -4 -19 -1 -8 3
-5 6 6 6 11 1 17 -2 13 -5z m-18 -78 c10 -12 8 -13 -8 -9 -12 3 -21 9 -21 14
0 14 16 11 29 -5z m46 -26 c3 -6 -1 -7 -9 -4 -18 7 -21 14 -7 14 6 0 13 -4 16
-10z"/>
<path d="M2065 1130 c-3 -5 -1 -10 4 -10 6 0 11 5 11 10 0 6 -2 10 -4 10 -3 0
-8 -4 -11 -10z"/>
<path d="M1892 1085 c0 -16 2 -22 5 -12 2 9 2 23 0 30 -3 6 -5 -1 -5 -18z"/>
<path d="M1187 534 c-10 -11 21 -35 59 -46 20 -5 38 -7 41 -5 2 3 -10 8 -27
12 -17 4 -36 15 -43 26 -12 20 -20 23 -30 13z"/>
</g>
</svg>
