<svg xmlns="http://www.w3.org/2000/svg" shape-rendering="geometricPrecision" text-rendering="geometricPrecision" image-rendering="optimizeQuality" fill-rule="evenodd" clip-rule="evenodd" viewBox="0 0 512 406.453"><path fill-rule="nonzero" d="M414.238 63.347h20.374c21.303 0 40.662 8.705 54.67 22.714C503.295 100.073 512 119.442 512 140.735v188.329c0 21.296-8.709 40.655-22.721 54.667s-33.375 22.722-54.667 22.722H77.388c-21.292 0-40.662-8.706-54.674-22.718C8.705 369.727 0 350.368 0 329.064V140.735c0-21.307 8.698-40.666 22.71-54.678s33.368-22.71 54.678-22.71h138.653V14.426C216.041 6.459 222.5 0 230.467 0c3.875 0 7.394 1.527 9.985 4.013l99.797 78.827c6.223 4.914 7.28 13.947 2.366 20.17a14.38 14.38 0 01-2.61 2.559l-100.636 79.489c-6.223 4.914-15.255 3.856-20.169-2.366a14.297 14.297 0 01-3.09-8.902h-.069v-52.737H77.388c-5.386 0-10.304 2.224-13.881 5.801s-5.801 8.498-5.801 13.881v188.329c0 5.38 2.228 10.298 5.805 13.874 3.58 3.58 8.501 5.808 13.877 5.808h357.224c5.368 0 10.29-2.231 13.87-5.811 3.58-3.581 5.812-8.499 5.812-13.871V140.735c0-5.376-2.228-10.297-5.809-13.878-3.576-3.576-8.494-5.804-13.873-5.804h-20.374V63.347z"/></svg>